Coordinates
version=1
nRows=17
nColumns=40
inDegrees=yes

Units are S.I. units (second, meters, Newtons, ...)
Angles are in degrees.

endheader
time	pelvis_tilt	pelvis_list	pelvis_rotation	pelvis_tx	pelvis_ty	pelvis_tz	hip_flexion_r	hip_adduction_r	hip_rotation_r	knee_angle_r	knee_angle_r_beta	ankle_angle_r	subtalar_angle_r	mtp_angle_r	hip_flexion_l	hip_adduction_l	hip_rotation_l	knee_angle_l	knee_angle_l_beta	ankle_angle_l	subtalar_angle_l	mtp_angle_l	lumbar_extension	lumbar_bending	lumbar_rotation	arm_flex_r	arm_add_r	arm_rot_r	elbow_flex_r	pro_sup_r	wrist_flex_r	wrist_dev_r	arm_flex_l	arm_add_l	arm_rot_l	elbow_flex_l	pro_sup_l	wrist_flex_l	wrist_dev_l
     50.92342857	     -4.60020286	     -4.89593858	      6.27059167	      0.81796483	      0.91734778	      0.48955591	     -1.25477522	      4.06712761	    -18.33840688	     11.04472927	     11.04472927	     17.68534124	      0.99187349	     -3.84944163	     31.20126855	     -5.83439239	     -0.42752377	     20.91723395	     20.91723395	      4.03345340	     -7.76433939	      4.74426361	     -8.06775438	      6.05780986	      3.28253386	     43.78194538	    -17.41167625	     -4.81811797	    101.97841869	     44.22910495	      0.00000000	      0.00000000	    -15.46267320	     -6.36062519	      2.47554570	     26.89193052	     44.71748466	      0.00000000	      0.00000000
     50.93685714	     -4.62358329	     -4.84266822	      6.05310850	      0.81992797	      0.91645979	      0.48796064	     -1.81658440	      3.89903027	    -18.11671094	     11.12352837	     11.12352837	     17.91628229	      1.12875261	     -3.85432285	     30.96508534	     -5.79698444	     -0.46744405	     21.70206326	     21.70206326	      3.46940526	     -8.12486371	      4.71423879	     -7.81297360	      5.90501879	      3.42461455	     43.63362577	    -17.33433260	     -4.78728219	    102.16274435	     44.22618438	      0.00000000	      0.00000000	    -15.64037653	     -6.37755623	      2.48656259	     26.93256161	     44.71549758	      0.00000000	      0.00000000
     50.95028571	     -4.71075880	     -4.91022490	      5.87815699	      0.82169360	      0.91557069	      0.48614745	     -2.19388111	      3.79733438	    -18.03122787	     11.38206899	     11.38206899	     18.17991128	      1.34727723	     -3.67498483	     30.91035138	     -5.76792641	     -0.11072292	     22.56096649	     22.56096649	      2.91284298	     -9.00287353	      4.38099693	     -7.54347768	      5.91200687	      3.60683262	     43.27869629	    -17.38357463	     -4.91809740	    102.73006683	     44.22873048	      0.00000000	      0.00000000	    -15.73391117	     -6.41519711	      2.51524129	     27.31307353	     44.72047380	      0.00000000	      0.00000000
     50.96371429	     -4.69359202	     -4.82810725	      5.67850913	      0.82349407	      0.91522054	      0.48419406	     -2.69363409	      3.53207472	    -17.80822253	     11.63209917	     11.63209917	     18.26803673	      1.41782031	     -3.67756649	     30.63392621	     -5.66132523	     -0.08244922	     23.27537507	     23.27537507	      2.79038233	     -9.41203297	      4.28376578	     -7.42154945	      5.77594697	      3.64244008	     42.85735787	    -17.27089904	     -4.87948050	    102.69862914	     44.22992625	      0.00000000	      0.00000000	    -15.60780687	     -6.43081750	      2.51932246	     27.40776862	     44.72409406	      0.00000000	      0.00000000
     50.97714286	     -4.80369025	     -4.83179277	      5.52429202	      0.82492141	      0.91481794	      0.48199826	     -2.78034665	      3.23898781	    -17.73780855	     12.36612518	     12.36612518	     18.43307823	      1.43897828	     -3.64783219	     30.62282051	     -5.48763641	      0.39871151	     24.10722045	     24.10722045	      2.73411932	    -10.49178205	      4.22131247	     -7.19673040	      5.75410481	      3.81779253	     42.28372652	    -17.36775114	     -5.15385999	    102.64943610	     44.25155039	      0.00000000	      0.00000000	    -15.31972194	     -6.47424944	      2.51762168	     27.70195095	     44.73892957	      0.00000000	      0.00000000
     50.99057143	     -4.74193342	     -4.75755286	      5.36009362	      0.82643155	      0.91510241	      0.47968154	     -3.19224719	      2.91737239	    -17.56660140	     12.80851814	     12.80851814	     18.37745571	      1.46676697	     -3.65821673	     30.28461091	     -5.33125606	      0.52907733	     24.72676491	     24.72676491	      2.98825501	    -10.98668071	      4.10608179	     -7.23607217	      5.66577579	      3.77118971	     41.60384297	    -17.20698266	     -5.11159329	    102.43574356	     44.25720895	      0.00000000	      0.00000000	    -14.90800156	     -6.49385524	      2.51856054	     27.86748613	     44.74794724	      0.00000000	      0.00000000
     51.00400000	     -4.84641472	     -4.66578208	      5.18882489	      0.82753980	      0.91529365	      0.47710930	     -3.02795473	      2.38735479	    -17.53907188	     14.00184226	     14.00184226	     18.45558761	      1.45210355	     -3.84458851	     30.17230452	     -5.01109019	      0.97473125	     25.38254535	     25.38254535	      3.26502678	    -12.16057210	      4.38932279	     -7.09023471	      5.57784343	      3.97997514	     40.79174358	    -17.36945054	     -5.50906327	    101.74666755	     44.29963597	      0.00000000	      0.00000000	    -14.33391077	     -6.58272563	      2.48526849	     28.12501024	     44.77164378	      0.00000000	      0.00000000
     51.01742857	     -4.90196649	     -4.52089593	      5.01864390	      0.82855029	      0.91592843	      0.47435786	     -2.91788187	      1.77501675	    -17.58855583	     15.16785227	     15.16785227	     18.39822651	      1.59286260	     -4.09126073	     29.86817712	     -4.63906520	      1.33888696	     25.80766928	     25.80766928	      3.75189477	    -13.11111562	      5.03690978	     -7.05015780	      5.44541656	      4.10795654	     39.81245004	    -17.29170619	     -5.96696404	    100.84356914	     44.35568161	      0.00000000	      0.00000000	    -13.56445041	     -6.63574561	      2.45431391	     28.35759135	     44.80397900	      0.00000000	      0.00000000
     51.03085714	     -4.81403320	     -4.56685329	      4.88164226	      0.82966645	      0.91700958	      0.47168160	     -3.18205145	      1.50451187	    -17.50595527	     15.80766043	     15.80766043	     18.02432882	      1.62109740	     -4.11873356	     29.38317482	     -4.56495389	      1.44338710	     26.14611296	     26.14611296	      4.30596481	    -13.46132549	      4.93053000	     -7.26165366	      5.55339366	      3.89440169	     38.89942227	    -17.06493839	     -5.87723222	    100.40163867	     44.36494073	      0.00000000	      0.00000000	    -12.79540405	     -6.61192761	      2.45440549	     28.63748105	     44.81820831	      0.00000000	      0.00000000
     51.04428571	     -4.91772492	     -4.30437274	      4.63992348	      0.83036507	      0.91777182	      0.46869026	     -2.58640316	      0.56266711	    -17.51938225	     17.78618112	     17.78618112	     17.94407812	      1.62805893	     -4.87340544	     29.04369013	     -4.11348690	      1.50432591	     26.45004697	     26.45004697	      4.83728494	    -14.16845736	      5.54954107	     -7.14413733	      5.31807973	      4.31652808	     37.66259410	    -17.30028480	     -6.40954546	     98.45428966	     44.44892599	      0.00000000	      0.00000000	    -11.86392930	     -6.77579101	      2.33029444	     29.03630755	     44.86139590	      0.00000000	      0.00000000
     51.05771429	     -4.95917365	     -4.20027813	      4.43995177	      0.83111478	      0.91883014	      0.46573310	     -2.20692968	     -0.13684768	    -17.56579277	     19.39734842	     19.39734842	     17.53311404	      1.69286397	     -5.67599874	     28.56280404	     -3.84572280	      1.56836220	     26.58403689	     26.58403689	      5.48415433	    -14.51330854	      6.17582616	     -7.14361441	      5.30257646	      4.39374888	     36.49931615	    -17.10263917	     -6.82543736	     96.66060858	     44.52465660	      0.00000000	      0.00000000	    -10.88863243	     -6.84755607	      2.20252117	     29.46359012	     44.90621525	      0.00000000	      0.00000000
     51.07114286	     -5.03049730	     -4.12449954	      4.22389344	      0.83171596	      0.91985555	      0.46275966	     -1.67229397	     -0.84266178	    -17.49387938	     21.17385462	     21.17385462	     16.91472469	      1.59416745	     -6.85526535	     28.08212384	     -3.64619225	      1.40631821	     26.64762203	     26.64762203	      6.19091026	    -14.69081477	      6.82708880	     -7.11224750	      5.31008493	      4.39788697	     35.36996615	    -16.88697298	     -7.28417453	     94.51600461	     44.61458254	      0.00000000	      0.00000000	     -9.93279769	     -6.96375616	      1.99200085	     29.99588803	     44.96429992	      0.00000000	      0.00000000
     51.08457143	     -5.07704784	     -4.06142956	      3.98944663	      0.83229615	      0.92088166	      0.45989798	     -1.01995512	     -1.54946923	    -17.28158218	     23.17279652	     23.17279652	     16.04863616	      1.20326759	     -8.32891708	     27.53943578	     -3.50654855	      1.15221923	     26.65004885	     26.65004885	      6.87118859	    -14.66479608	      7.29335759	     -7.07628675	      5.30229447	      4.38220700	     34.19231977	    -16.62104246	     -7.65937072	     92.17842076	     44.70732142	      0.00000000	      0.00000000	     -8.96298320	     -7.09966665	      1.71382045	     30.66392217	     45.03149738	      0.00000000	      0.00000000
     51.09800000	     -5.10432601	     -3.95140957	      3.74478857	      0.83269375	      0.92185126	      0.45701726	     -0.17348877	     -2.34576144	    -16.86630031	     25.51813745	     25.51813745	     15.11999582	      0.59477562	     -9.66480831	     26.91486243	     -3.33115470	      0.85337445	     26.53631463	     26.53631463	      7.46904863	    -14.46291494	      7.40615803	     -7.15246092	      5.26288824	      4.43992135	     32.86633138	    -16.42268433	     -7.87811258	     90.00543075	     44.78512393	      0.00000000	      0.00000000	     -7.93497859	     -7.29644423	      1.45763863	     31.37026652	     45.09122233	      0.00000000	      0.00000000
     51.11142857	     -5.14756635	     -3.95960630	      3.55386200	      0.83295313	      0.92271214	      0.45425311	      0.65972836	     -2.88494716	    -16.20772486	     27.51961028	     27.51961028	     12.50943330	     -1.30584961	    -14.96575371	     26.39904897	     -3.28961528	      0.50806679	     26.54336979	     26.54336979	      8.31497765	    -14.10485640	      8.06228155	     -7.08348215	      5.33674201	      3.60984858	     32.55341747	    -15.07390912	     -8.37081646	     85.40235910	     44.97560442	      0.00000000	      0.00000000	     -7.51737922	     -7.48050329	      0.29377225	     32.81838975	     45.29627750	      0.00000000	      0.00000000
     51.12485714	     -5.17574516	     -3.84685017	      3.31201480	      0.83296474	      0.92343691	      0.45143871	      1.95762725	     -3.74596022	    -15.61815593	     30.57779250	     30.57779250	     11.42801121	     -2.21281211	    -15.72057925	     25.75315114	     -3.13529034	      0.08843590	     26.32839273	     26.32839273	      8.79722807	    -13.80954124	      7.82736256	     -7.25066223	      5.34605882	      3.77584506	     30.95199563	    -15.24349089	     -8.31875470	     83.76206880	     45.02382616	      0.00000000	      0.00000000	     -6.22572294	     -7.73535610	      0.04683788	     33.55152698	     45.35320162	      0.00000000	      0.00000000
     51.13828571	     -5.25306913	     -3.89334762	      3.11811926	      0.83275217	      0.92392615	      0.44891720	      3.39643436	     -4.22367040	    -14.57966813	     33.47976634	     33.47976634	      9.04225038	     -4.69211605	    -18.89410715	     25.29688725	     -3.17350515	     -0.34599799	     26.28341142	     26.28341142	      9.18316860	    -13.42749288	      7.23365169	     -7.18203554	      5.42267822	      3.36140941	     30.28801552	    -14.56098092	     -8.75144860	     79.40212042	     45.19373658	      0.00000000	      0.00000000	     -5.36655359	     -7.95626575	     -1.03951953	     34.94425815	     45.53781809	      0.00000000	      0.00000000
